<svg xmlns="http://www.w3.org/2000/svg" fill="none" viewBox="0 0 560 260">
  <path fill="currentColor" d="M445.275 197.443c-2.6 0-3.9-1.04-3.9-2.86 0-1.56 1.04-2.6 3.38-3.12l3.12-.52c7.28-1.3 8.84-3.64 8.84-10.92v-87.36c0-6.24-1.56-7.8-6.5-8.58l-5.46-.78c-2.6-.26-3.38-1.3-3.38-2.86 0-1.56 1.3-2.34 4.16-2.86 10.66-1.56 15.08-5.46 21.32-11.18 1.56-1.56 2.6-2.34 3.9-2.34 1.56 0 2.34 1.04 2.34 3.12v11.7c0 3.12 2.6 4.42 5.46 1.56 13.78-13.26 23.4-17.16 35.1-17.16 15.6 0 25.74 11.18 25.74 32.24v84.5c0 7.28 1.56 9.62 8.84 10.66l5.719.78c1.82.26 2.861 1.3 2.861 3.12s-1.3 2.86-3.12 2.86h-43.68c-2.6 0-3.64-1.3-3.64-2.86 0-1.56 1.04-2.86 2.86-3.12l3.64-.52c7.28-1.04 8.84-3.64 8.84-10.92v-81.64c0-16.9-6.5-23.14-17.94-23.14-16.64 0-29.38 16.12-29.38 35.1v69.68c0 7.28 1.56 9.88 8.84 10.66l7.02.78c1.82.26 2.86 1.3 2.86 2.86 0 2.08-1.3 3.12-3.9 3.12h-43.94Z"/>
  <path fill="currentColor" d="M422.224 40.144c-7.28 0-13-5.72-13-13.78 0-8.06 5.72-13.52 13-13.52s12.74 5.46 12.74 13.52c0 8.06-5.46 13.78-12.74 13.78Zm-21.84 157.3c-2.6 0-3.9-1.04-3.9-2.86 0-1.56 1.04-2.6 3.38-3.12l3.12-.52c8.58-1.3 10.14-3.64 10.14-10.92v-87.36c0-6.24-1.56-7.8-6.5-8.58l-5.46-.78c-2.6-.26-3.38-1.3-3.38-2.86 0-1.56 1.3-2.34 4.16-2.86 10.66-1.56 16.38-5.46 22.62-11.18 1.56-1.56 2.6-2.34 3.9-2.34 1.56 0 2.34 1.04 2.34 3.12v112.84c0 7.28 1.56 9.88 7.54 10.66l6.5.78c1.82.26 2.86 1.3 2.86 2.86 0 2.08-1.3 3.12-3.9 3.12h-43.42Z"/>
  <path fill="currentColor" d="M333.816 199.783c-23.14 0-39.26-25.22-39.26-62.92 0-43.42 22.1-73.58 52.52-73.58 4.94 0 9.62.78 14.3 2.86 2.6 1.3 4.16.78 4.16-1.82v-33.28c0-6.24-1.56-8.06-6.5-8.58l-6.76-.78c-1.82-.26-2.86-1.56-2.86-3.12s1.04-2.86 2.86-3.12c10.92-2.08 17.42-4.94 21.84-7.8 2.86-1.82 4.68-2.6 6.24-2.6 1.82 0 2.86 1.3 2.86 4.16v163.54c0 7.54 2.08 10.92 5.46 10.92 4.42 0 9.1-5.46 9.1-20.02 0-2.86 1.56-4.16 3.38-4.16 1.82 0 3.12 1.3 3.12 4.42 0 25.22-10.4 35.88-21.32 35.88-10.14 0-15.08-7.8-16.64-17.16-.52-2.6-2.86-2.86-4.68-.26-9.62 13.52-16.38 17.42-27.82 17.42Zm5.72-11.96c13.26 0 26-15.08 26-34.32v-58.5c0-15.6-7.8-25.22-19.24-25.22-19.5 0-32.5 24.44-32.5 63.44 0 35.62 9.62 54.6 25.74 54.6ZM257.022 81.484c7.02-11.96 15.6-18.2 25.74-18.2 11.44 0 16.9 8.06 16.9 16.38 0 6.5-3.38 11.18-10.14 11.18-11.18 0-7.54-13-17.16-13-9.36 0-18.46 18.2-18.46 41.859v60.32c0 7.28 1.56 9.88 8.84 10.66l7.02.78c1.82.26 2.86 1.3 2.86 2.86 0 2.08-1.3 3.12-3.9 3.12h-43.94c-2.6 0-3.9-1.04-3.9-2.86 0-1.56 1.04-2.6 3.38-3.12l3.12-.52c7.28-1.3 8.84-3.64 8.84-10.92v-87.36c0-6.24-1.56-7.8-6.5-8.58l-5.46-.78c-2.6-.26-3.38-1.3-3.38-2.86 0-1.56 1.3-2.34 4.16-2.86 10.66-1.56 15.08-5.46 21.32-11.18 1.56-1.56 2.6-2.34 3.9-2.34 1.56 0 2.34 1.04 2.34 3.12v14.04c0 2.6 2.6 3.38 4.42.26Z"/>
  <path fill="currentColor" d="M157.335 199.783c-14.56 0-24.96-9.88-24.96-25.22 0-22.1 22.62-42.12 54.08-52.26 2.34-.78 3.38-2.34 3.38-4.42v-23.66c0-16.64-5.72-23.14-14.56-23.14s-16.38 7.28-19.5 25.48c-1.82 11.18-8.58 15.86-14.3 15.86-4.42 0-7.28-2.6-7.28-7.28 0-20.28 25.48-41.86 47.58-41.86 16.64 0 25.74 9.62 25.74 29.9v79.56c0 7.54 2.08 10.92 5.46 10.92 4.42 0 9.1-5.46 9.1-20.02 0-2.86 1.56-4.16 3.38-4.16 1.82 0 3.12 1.3 3.12 4.42 0 25.22-10.4 35.88-21.58 35.88-8.32 0-13.26-7.8-14.82-17.16-.52-3.38-3.64-3.64-5.98-.26-8.32 11.44-16.12 17.42-28.86 17.42Zm7.02-11.96c13.26 0 25.48-15.6 25.48-35.88v-18.98c0-2.86-2.08-4.16-5.46-2.86-21.06 7.8-33.28 21.06-33.28 39.78 0 11.7 4.68 17.94 13.26 17.94Z"/>
  <path fill="currentColor" d="M9.088 197.443c-2.6 0-3.9-1.04-3.9-2.86 0-1.56 1.04-2.6 3.38-3.12l5.98-1.04c7.28-1.3 8.84-2.86 8.84-10.14V27.403c0-7.28-1.56-8.84-8.84-10.14l-5.98-1.04c-2.34-.52-3.38-1.56-3.38-3.12 0-1.82 1.3-2.86 3.9-2.86h47.58c2.6 0 3.9 1.04 3.9 3.12 0 1.56-1.04 2.6-2.86 2.86l-7.02 1.04c-7.28 1.04-8.84 3.12-8.84 10.4v65.26c0 2.34 1.3 3.64 3.64 3.64h51.48c2.34 0 3.64-1.3 3.64-3.64v-65.26c0-7.28-1.56-9.36-8.84-10.4l-7.02-1.04c-1.82-.26-2.86-1.3-2.86-2.86 0-2.08 1.3-3.12 3.9-3.12h47.58c2.6 0 3.9 1.04 3.9 2.86 0 1.56-1.04 2.6-3.38 3.12l-5.98 1.04c-7.28 1.3-8.84 2.86-8.84 10.14v152.88c0 7.28 1.56 8.84 8.84 10.14l5.98 1.04c2.34.52 3.38 1.56 3.38 3.12 0 1.82-1.3 2.86-3.9 2.86h-47.58c-2.6 0-3.9-1.04-3.9-3.12 0-1.56 1.04-2.6 2.86-2.86l7.02-1.04c7.28-1.04 8.84-3.12 8.84-10.4v-72.02c0-2.34-1.3-3.64-3.64-3.64h-51.48c-2.34 0-3.64 1.3-3.64 3.64v72.02c0 7.28 1.56 9.36 8.84 10.4l7.02 1.04c1.82.26 2.86 1.3 2.86 2.86 0 2.08-1.3 3.12-3.9 3.12H9.088Z"/>
</svg>
