<svg xmlns="http://www.w3.org/2000/svg" fill="none" viewBox="0 0 346 245">
  <path fill="currentColor" d="M262.766 244.743c-9.36 0-15.34-7.54-15.34-15.86 0-6.5 3.9-11.7 10.66-11.7 11.18 0 7.28 11.96 13.26 11.96 3.64 0 6.24-3.64 11.7-21.06 4.94-15.34 4.94-22.62-1.04-41.6l-28.34-90.22c-2.6-8.32-4.16-9.62-8.84-10.66l-3.9-.78c-2.34-.52-3.38-1.56-3.38-3.38 0-1.56 1.3-2.6 3.64-2.6h42.9c2.34 0 3.64 1.04 3.64 2.6 0 1.82-1.3 3.12-3.38 3.38l-4.16.52c-8.32 1.04-10.14 3.38-7.8 10.92l22.88 76.18c1.04 3.38 3.9 3.38 4.94 0l22.1-71.5c2.86-9.36 2.34-13.52-6.24-15.08l-5.46-1.04c-2.08-.52-3.38-1.56-3.38-3.38 0-1.56 1.3-2.6 3.64-2.6h33.02c2.6 0 3.64 1.3 3.64 2.86 0 1.56-.78 2.86-3.12 3.64l-2.34.78c-5.2 1.82-8.32 5.46-11.96 16.38l-38.74 120.9c-11.7 36.66-17.94 41.34-28.6 41.34Z"/>
  <path fill="currentColor" d="M211.684 193.783c-24.96 0-43.94-26.78-43.94-67.08 0-40.82 19.76-69.42 45.5-69.42 20.28 0 34.32 15.86 34.32 53.56 0 5.46-2.08 8.58-6.5 8.58h-49.4c-3.38 0-5.2 1.82-5.2 5.98 0 36.66 11.96 55.12 28.6 55.12 13.26 0 21.06-8.32 26.26-30.68.52-1.82 1.56-2.86 3.38-2.86 2.08 0 2.86 2.08 2.34 5.2-5.72 30.94-18.2 41.6-35.36 41.6Zm-20.8-80.86h26.26c8.58 0 12.48-3.9 12.48-13 0-22.62-5.72-36.14-16.64-36.14-13.52 0-23.4 16.38-26 44.98-.26 2.6 1.3 4.16 3.9 4.16Zm-58.853-37.44c7.02-11.96 15.6-18.2 25.74-18.2 11.44 0 16.9 8.06 16.9 16.38 0 6.5-3.38 11.18-10.14 11.18-11.18 0-7.54-13-17.16-13-9.36 0-18.46 18.2-18.46 41.86v60.32c0 7.28 1.56 9.88 8.84 10.66l7.02.78c1.82.26 2.86 1.3 2.86 2.86 0 2.08-1.3 3.12-3.9 3.12h-43.94c-2.6 0-3.9-1.04-3.9-2.86 0-1.56 1.04-2.6 3.38-3.12l3.12-.52c7.28-1.3 8.84-3.64 8.84-10.92v-87.36c0-6.24-1.56-7.8-6.5-8.58l-5.46-.78c-2.6-.26-3.38-1.3-3.38-2.86 0-1.56 1.3-2.34 4.16-2.86 10.66-1.56 15.08-5.46 21.32-11.18 1.56-1.56 2.6-2.34 3.9-2.34 1.56 0 2.34 1.04 2.34 3.12v14.04c0 2.6 2.6 3.38 4.42.26Z"/>
  <path fill="currentColor" d="M28.268 191.443c-2.6 0-3.9-1.04-3.9-2.86 0-1.56 1.04-2.86 3.38-3.12l11.7-1.82c6.76-1.04 8.84-2.86 8.84-10.14v-156c0-4.94-1.56-6.76-8.06-6.76-13 0-27.56 10.4-31.2 35.1l-1.3 8.58c-.26 2.08-1.56 3.38-3.64 3.38s-3.64-1.56-3.38-4.42l2.34-47.06c.26-3.9 1.82-5.98 4.68-5.98 3.38 0 4.16 3.9 20.8 3.9h57.98c16.64 0 17.42-3.9 20.8-3.9 2.86 0 4.42 2.08 4.68 5.98l2.34 47.06c.26 2.86-1.3 4.42-3.38 4.42s-3.38-1.3-3.64-3.38l-1.3-8.58c-3.64-24.7-18.2-35.1-31.2-35.1-6.5 0-8.06 1.82-8.06 6.76v156c0 7.28 2.08 9.1 8.84 10.14l11.7 1.82c2.34.26 3.38 1.56 3.38 3.12 0 1.82-1.3 2.86-3.9 2.86h-58.5Z"/>
</svg>
